# xmcd
#
# Track frame offsets: 
#        150
#        4957
#        28374
#        44133
#        53386
#        59160
#        72618
#        96072
#        112979
#        119131
#        130369
#        148370
#        193090
#        204972
#        230575
#        251409
#        272599
#        277011
#        287519
#        294864
#        296743
#        300746
#        302379
#
# Disc length: 4087 seconds
#
# Revision: 1
# Processed by: cddbd v1.5.2PL0 Copyright (c) Steve Scherf et al.
# Submitted via: ExactAudioCopy v1.0b1
#
DISCID=730ff517
DTITLE=Hobo Blues Band - Bolondvadászat CD 2
DYEAR=2008
DGENRE=Blues
TTITLE0=Szelep szerep
TTITLE1=Halál a medvére
TTITLE2=Farkashajsza
TTITLE3=Az üldözés
TTITLE4=Vakon es süketen
TTITLE5=Zöld sárga, zöld sárga
TTITLE6=A vadászok bevonulása
TTITLE7=A zsákmány terítéken
TTITLE8=Ha papnak csak a szája jár…
TTITLE9=Triptichon
TTITLE10=A vendégsereg tánca
TTITLE11=Orgia
TTITLE12=A bolond levele
TTITLE13=A vadászok kivonulása
TTITLE14=Adjatok a kutyáknak húst
TTITLE15=Védj meg a gonosztól
TTITLE16=A vadászat alapelvei
TTITLE17=Farkasok dala
TTITLE18=A kutyák dala
TTITLE19=Semmi szükség már bolondra…
TTITLE20=Ha pénzed van, de verd dobra…
TTITLE21=Élveztek ők sikoltozásig…
TTITLE22=Szolgál a rongy bölcs…
EXTD=
EXTT0=
EXTT1=
EXTT2=
EXTT3=
EXTT4=
EXTT5=
EXTT6=
EXTT7=
EXTT8=
EXTT9=
EXTT10=
EXTT11=
EXTT12=
EXTT13=
EXTT14=
EXTT15=
EXTT16=
EXTT17=
EXTT18=
EXTT19=
EXTT20=
EXTT21=
EXTT22=
PLAYORDER=
